<svg width="100%" viewBox="0 0 680 680" xmlns="http://www.w3.org/2000/svg" role="img">
<title>transition - search form @ example.com  GET /search</title>
<rect x="0" y="0" width="680" height="680" fill="#000"/>
<g fill="#ff2a00">
<rect x="141.7" y="311.7" width="28.3" height="28.3" opacity="0.22"/>
<rect x="170.0" y="311.7" width="28.3" height="28.3" opacity="0.22"/>
<rect x="198.3" y="311.7" width="28.3" height="28.3" opacity="0.22"/>
<rect x="226.7" y="311.7" width="28.3" height="28.3" opacity="0.22"/>
<rect x="170.0" y="340.0" width="28.3" height="28.3" opacity="0.22"/>
<rect x="198.3" y="340.0" width="28.3" height="28.3" opacity="0.22"/>
<rect x="255.0" y="340.0" width="28.3" height="28.3" opacity="0.22"/>
<rect x="283.3" y="340.0" width="28.3" height="28.3" opacity="0.22"/>
<rect x="311.7" y="340.0" width="28.3" height="28.3" opacity="0.22"/>
<rect x="340.0" y="340.0" width="28.3" height="28.3" opacity="0.22"/>
<rect x="141.7" y="368.3" width="28.3" height="28.3" opacity="0.22"/>
<rect x="170.0" y="368.3" width="28.3" height="28.3" opacity="0.22"/>
<rect x="198.3" y="368.3" width="28.3" height="28.3" opacity="0.22"/>
<rect x="226.7" y="368.3" width="28.3" height="28.3" opacity="0.22"/>
<rect x="255.0" y="368.3" width="28.3" height="28.3" opacity="0.22"/>
<rect x="283.3" y="368.3" width="28.3" height="28.3" opacity="0.22"/>
<rect x="311.7" y="368.3" width="28.3" height="28.3" opacity="0.22"/>
<rect x="340.0" y="368.3" width="28.3" height="28.3" opacity="0.22"/>
<rect x="141.7" y="396.7" width="28.3" height="28.3" opacity="0.22"/>
<rect x="170.0" y="396.7" width="28.3" height="28.3" opacity="0.22"/>
<rect x="198.3" y="396.7" width="28.3" height="28.3" opacity="0.22"/>
<rect x="226.7" y="396.7" width="28.3" height="28.3" opacity="0.22"/>
<rect x="255.0" y="396.7" width="28.3" height="28.3" opacity="0.22"/>
<rect x="283.3" y="396.7" width="28.3" height="28.3" opacity="0.22"/>
<rect x="311.7" y="396.7" width="28.3" height="28.3" opacity="0.22"/>
<rect x="340.0" y="396.7" width="28.3" height="28.3" opacity="0.22"/>
<rect x="396.7" y="396.7" width="28.3" height="28.3" opacity="0.22"/>
<rect x="425.0" y="396.7" width="28.3" height="28.3" opacity="0.22"/>
<rect x="453.3" y="396.7" width="28.3" height="28.3" opacity="0.22"/>
<rect x="481.7" y="396.7" width="28.3" height="28.3" opacity="0.22"/>
<rect x="141.7" y="425.0" width="28.3" height="28.3" opacity="0.22"/>
<rect x="170.0" y="425.0" width="28.3" height="28.3" opacity="0.22"/>
<rect x="198.3" y="425.0" width="28.3" height="28.3" opacity="0.22"/>
<rect x="226.7" y="425.0" width="28.3" height="28.3" opacity="0.22"/>
<rect x="255.0" y="425.0" width="28.3" height="28.3" opacity="0.22"/>
<rect x="283.3" y="425.0" width="28.3" height="28.3" opacity="0.22"/>
<rect x="311.7" y="425.0" width="28.3" height="28.3" opacity="0.22"/>
<rect x="340.0" y="425.0" width="28.3" height="28.3" opacity="0.22"/>
<rect x="396.7" y="425.0" width="28.3" height="28.3" opacity="0.22"/>
<rect x="425.0" y="425.0" width="28.3" height="28.3" opacity="0.22"/>
<rect x="453.3" y="425.0" width="28.3" height="28.3" opacity="0.22"/>
<rect x="481.7" y="425.0" width="28.3" height="28.3" opacity="0.22"/>
<rect x="141.7" y="453.3" width="28.3" height="28.3" opacity="0.22"/>
<rect x="170.0" y="453.3" width="28.3" height="28.3" opacity="0.22"/>
<rect x="198.3" y="453.3" width="28.3" height="28.3" opacity="0.22"/>
<rect x="226.7" y="453.3" width="28.3" height="28.3" opacity="0.22"/>
<rect x="255.0" y="453.3" width="28.3" height="28.3" opacity="0.34"/>
<rect x="283.3" y="453.3" width="28.3" height="28.3" opacity="0.22"/>
<rect x="311.7" y="453.3" width="28.3" height="28.3" opacity="0.22"/>
<rect x="340.0" y="453.3" width="28.3" height="28.3" opacity="0.22"/>
<rect x="396.7" y="453.3" width="28.3" height="28.3" opacity="0.22"/>
<rect x="425.0" y="453.3" width="28.3" height="28.3" opacity="0.22"/>
<rect x="453.3" y="453.3" width="28.3" height="28.3" opacity="0.22"/>
<rect x="481.7" y="453.3" width="28.3" height="28.3" opacity="0.22"/>
<rect x="141.7" y="481.7" width="28.3" height="28.3" opacity="0.22"/>
<rect x="170.0" y="481.7" width="28.3" height="28.3" opacity="0.22"/>
<rect x="198.3" y="481.7" width="28.3" height="28.3" opacity="0.22"/>
<rect x="226.7" y="481.7" width="28.3" height="28.3" opacity="0.22"/>
<rect x="255.0" y="481.7" width="28.3" height="28.3" opacity="0.34"/>
<rect x="283.3" y="481.7" width="28.3" height="28.3" opacity="0.22"/>
<rect x="311.7" y="481.7" width="28.3" height="28.3" opacity="0.22"/>
<rect x="340.0" y="481.7" width="28.3" height="28.3" opacity="0.22"/>
<rect x="396.7" y="481.7" width="28.3" height="28.3" opacity="0.22"/>
<rect x="425.0" y="481.7" width="28.3" height="28.3" opacity="0.22"/>
<rect x="453.3" y="481.7" width="28.3" height="28.3" opacity="0.22"/>
<rect x="481.7" y="481.7" width="28.3" height="28.3" opacity="0.22"/>
<rect x="141.7" y="510.0" width="28.3" height="28.3" opacity="0.22"/>
<rect x="170.0" y="510.0" width="28.3" height="28.3" opacity="0.22"/>
<rect x="198.3" y="510.0" width="28.3" height="28.3" opacity="0.22"/>
<rect x="226.7" y="510.0" width="28.3" height="28.3" opacity="0.22"/>
<rect x="255.0" y="510.0" width="28.3" height="28.3" opacity="0.22"/>
<rect x="283.3" y="510.0" width="28.3" height="28.3" opacity="0.22"/>
<rect x="311.7" y="510.0" width="28.3" height="28.3" opacity="0.22"/>
<rect x="340.0" y="510.0" width="28.3" height="28.3" opacity="0.22"/>
<rect x="396.7" y="510.0" width="28.3" height="28.3" opacity="0.22"/>
<rect x="425.0" y="510.0" width="28.3" height="28.3" opacity="0.22"/>
<rect x="453.3" y="510.0" width="28.3" height="28.3" opacity="0.22"/>
<rect x="481.7" y="510.0" width="28.3" height="28.3" opacity="0.22"/>
<rect x="141.7" y="538.3" width="28.3" height="28.3" opacity="0.22"/>
<rect x="170.0" y="538.3" width="28.3" height="28.3" opacity="0.22"/>
<rect x="198.3" y="538.3" width="28.3" height="28.3" opacity="0.22"/>
<rect x="226.7" y="538.3" width="28.3" height="28.3" opacity="0.22"/>
<rect x="255.0" y="538.3" width="28.3" height="28.3" opacity="0.22"/>
<rect x="283.3" y="538.3" width="28.3" height="28.3" opacity="0.22"/>
<rect x="311.7" y="538.3" width="28.3" height="28.3" opacity="0.22"/>
<rect x="340.0" y="538.3" width="28.3" height="28.3" opacity="0.22"/>
<rect x="396.7" y="538.3" width="28.3" height="28.3" opacity="0.22"/>
<rect x="425.0" y="538.3" width="28.3" height="28.3" opacity="0.22"/>
<rect x="453.3" y="538.3" width="28.3" height="28.3" opacity="0.22"/>
<rect x="481.7" y="538.3" width="28.3" height="28.3" opacity="0.22"/>
<rect x="141.7" y="566.7" width="28.3" height="28.3" opacity="0.22"/>
<rect x="170.0" y="566.7" width="28.3" height="28.3" opacity="0.22"/>
<rect x="198.3" y="566.7" width="28.3" height="28.3" opacity="0.22"/>
<rect x="226.7" y="566.7" width="28.3" height="28.3" opacity="0.22"/>
<rect x="255.0" y="566.7" width="28.3" height="28.3" opacity="0.22"/>
<rect x="283.3" y="566.7" width="28.3" height="28.3" opacity="0.22"/>
<rect x="311.7" y="566.7" width="28.3" height="28.3" opacity="0.22"/>
<rect x="340.0" y="566.7" width="28.3" height="28.3" opacity="0.22"/>
<rect x="170.0" y="595.0" width="28.3" height="28.3" opacity="0.22"/>
<rect x="198.3" y="595.0" width="28.3" height="28.3" opacity="0.22"/>
</g>
<g fill="#dd2000" font-family="monospace" font-size="11">
<text x="156.6" y="329.7">PAGINATION</text>
<text x="34.2" y="63.7">FORMAT</text>
<text x="410.2" y="423.9">LOCALE</text>
<text x="125.6" y="359.6">ORDERING</text>
<text x="262.6" y="362.4">DIAGNOSTICS</text>
</g>
<circle cx="269.2" cy="467.5" r="6.5" fill="#00ff00"/>
<g fill="#00ff00" font-family="monospace" font-size="12"><text x="287.2" y="471.5">page=2  -&gt;  200  len+Δ  (caught in PAGINATION x FORMAT)</text></g>
<g fill="#dd2000" font-family="monospace" font-size="12">
<text x="14" y="22">transition  search form @ example.com  GET /search</text>
<text x="14" y="664">seed=2194233145  depth=3  frames=5  (regenerates byte-identical)</text>
</g>
</svg>